<svg version="1.1" id="Layer_1" xmlns="http://www.w3.org/2000/svg" xmlns:xlink="http://www.w3.org/1999/xlink" x="0px" y="0px"
	 width="100%" viewBox="0 0 500 500" enable-background="new 0 0 500 500" xml:space="preserve">
<path fill="#FFCC01" opacity="1.000000" stroke="none" 
	d="
M501.000000,141.000000 
	C501.000000,261.333313 501.000000,381.166595 501.000000,500.999939 
	C334.333405,500.999939 167.666809,500.999939 1.000154,500.999969 
	C1.000103,334.333435 1.000103,167.666885 1.000051,1.000243 
	C167.666519,1.000162 334.333038,1.000162 500.999756,1.000081 
	C501.000000,47.500000 501.000000,94.000000 501.000000,141.000000 
M369.456268,460.957520 
	C387.329681,451.053741 403.856750,439.227661 418.293152,424.789520 
	C472.285950,370.790375 497.260925,305.642761 490.995911,229.401077 
	C486.357300,172.951431 464.133148,123.564270 424.259888,83.437286 
	C365.984314,24.790831 295.073151,1.009375 213.018539,13.001531 
	C162.893326,20.327253 119.105682,42.152012 83.400856,77.793678 
	C21.825024,139.260590 -1.576101,213.757309 15.007358,299.324524 
	C35.850578,406.871216 128.903809,486.424988 238.336899,491.834869 
	C284.688385,494.126251 328.250977,484.020020 369.456268,460.957520 
z"/>
<path fill="#FAF6F3" opacity="1.000000" stroke="none" 
	d="
M369.127441,461.120483 
	C328.250977,484.020020 284.688385,494.126251 238.336899,491.834869 
	C128.903809,486.424988 35.850578,406.871216 15.007358,299.324524 
	C-1.576101,213.757309 21.825024,139.260590 83.400856,77.793678 
	C119.105682,42.152012 162.893326,20.327253 213.018539,13.001531 
	C295.073151,1.009375 365.984314,24.790831 424.259888,83.437286 
	C464.133148,123.564270 486.357300,172.951431 490.995911,229.401077 
	C497.260925,305.642761 472.285950,370.790375 418.293152,424.789520 
	C403.856750,439.227661 387.329681,451.053741 369.127441,461.120483 
M372.898102,426.826904 
	C373.048523,427.001129 373.198975,427.175385 372.974823,427.914032 
	C370.392883,429.730469 367.860748,431.622925 365.221649,433.352142 
	C305.934357,472.198608 242.512833,482.112762 174.691269,460.259338 
	C143.828461,450.314728 117.613823,432.806091 94.835602,409.947876 
	C91.779289,406.880829 88.918846,403.619507 85.906456,400.507446 
	C83.835159,398.367584 81.428894,396.493439 78.563019,398.943848 
	C75.352013,401.689392 77.453667,404.293518 79.335732,406.735321 
	C79.639610,407.129578 80.013695,407.468872 80.342293,407.844971 
	C101.144768,431.654755 125.888573,450.112732 155.056595,462.427063 
	C205.607620,483.768921 257.456085,487.212524 309.598480,470.179565 
	C380.408600,447.048553 430.251862,400.093262 458.754395,331.396851 
	C480.230652,279.635101 483.829926,226.035889 465.685730,172.805389 
	C435.607574,84.563477 373.840790,33.229874 280.729218,21.858160 
	C235.258774,16.304853 192.271454,26.523954 152.217499,48.135651 
	C58.296452,98.812157 9.646358,201.994202 30.210146,306.676544 
	C32.691486,319.308105 37.422459,331.514557 41.453369,343.805664 
	C42.018688,345.529419 44.438522,347.581696 46.199318,347.789124 
	C50.360580,348.279297 51.601135,345.305237 49.507435,339.952240 
	C34.979126,302.807404 31.232014,264.480164 37.090412,225.169998 
	C38.493679,215.754013 40.803055,206.473068 42.695698,197.130005 
	C43.173180,197.216263 43.650661,197.302505 44.128143,197.388763 
	C44.000538,198.819763 44.039803,200.289169 43.720608,201.676071 
	C37.725739,227.723953 36.093681,253.981247 39.981594,280.486084 
	C47.953236,334.830627 73.075569,379.763947 115.050087,415.001953 
	C146.635040,441.517792 183.132248,457.118011 224.195923,462.318939 
	C249.797729,465.561584 274.997620,464.198761 300.032837,458.400452 
	C326.245880,452.329315 350.240265,441.198364 372.898102,426.826904 
z"/>
<path fill="#0C0119" opacity="1.000000" stroke="none" 
	d="
M372.525421,426.243042 
	C350.240265,441.198364 326.245880,452.329315 300.032837,458.400452 
	C274.997620,464.198761 249.797729,465.561584 224.195923,462.318939 
	C183.132248,457.118011 146.635040,441.517792 115.050087,415.001953 
	C73.075569,379.763947 47.953236,334.830627 39.981594,280.486084 
	C36.093681,253.981247 37.725739,227.723953 43.720608,201.676071 
	C44.039803,200.289169 44.000538,198.819763 44.128143,197.388763 
	C43.650661,197.302505 43.173180,197.216263 42.695698,197.130005 
	C40.803055,206.473068 38.493679,215.754013 37.090412,225.169998 
	C31.232014,264.480164 34.979126,302.807404 49.507435,339.952240 
	C51.601135,345.305237 50.360580,348.279297 46.199318,347.789124 
	C44.438522,347.581696 42.018688,345.529419 41.453369,343.805664 
	C37.422459,331.514557 32.691486,319.308105 30.210146,306.676544 
	C9.646358,201.994202 58.296452,98.812157 152.217499,48.135651 
	C192.271454,26.523954 235.258774,16.304853 280.729218,21.858160 
	C373.840790,33.229874 435.607574,84.563477 465.685730,172.805389 
	C483.829926,226.035889 480.230652,279.635101 458.754395,331.396851 
	C430.251862,400.093262 380.408600,447.048553 309.598480,470.179565 
	C257.456085,487.212524 205.607620,483.768921 155.056595,462.427063 
	C125.888573,450.112732 101.144768,431.654755 80.342293,407.844971 
	C80.013695,407.468872 79.639610,407.129578 79.335732,406.735321 
	C77.453667,404.293518 75.352013,401.689392 78.563019,398.943848 
	C81.428894,396.493439 83.835159,398.367584 85.906456,400.507446 
	C88.918846,403.619507 91.779289,406.880829 94.835602,409.947876 
	C117.613823,432.806091 143.828461,450.314728 174.691269,460.259338 
	C242.512833,482.112762 305.934357,472.198608 365.221649,433.352142 
	C367.860748,431.622925 370.392883,429.730469 373.383087,427.480164 
	C373.855560,426.700134 373.919769,426.353943 374.323334,426.006592 
	C375.272125,425.618713 375.881531,425.232056 376.490906,424.845398 
	C376.263092,424.641357 375.861450,424.237793 375.832977,424.262573 
	C375.194519,424.818817 374.597076,425.422180 373.739441,425.999023 
	C373.166443,426.068634 372.845947,426.155823 372.525421,426.243042 
M61.557480,152.726440 
	C61.737766,152.182648 61.918053,151.638855 62.745155,150.928375 
	C63.523487,149.638535 64.301819,148.348709 65.318779,146.910614 
	C65.192558,146.913559 65.066345,146.916504 64.285797,147.073654 
	C63.498398,148.365921 62.711002,149.658173 61.471989,151.317581 
	C61.284542,151.860138 61.097099,152.402679 60.465168,153.297531 
	C60.261459,153.819931 60.057751,154.342316 59.437466,155.261627 
	C59.242989,155.796127 59.048512,156.330612 58.426289,157.342407 
	C58.356510,158.150238 58.286736,158.958069 58.216961,159.765900 
	C58.456661,159.782410 58.696365,159.798904 58.936066,159.815414 
	C58.987946,158.895111 59.039825,157.974792 59.545235,156.689270 
	C59.727646,156.144608 59.910057,155.599945 60.538265,154.702713 
	C60.738190,154.178070 60.938114,153.653442 61.557480,152.726440 
M388.308167,414.008362 
	C387.824188,414.628662 387.340210,415.248962 386.209930,415.952057 
	C385.643707,416.362885 385.077484,416.773743 384.511261,417.184570 
	C384.736206,417.379730 385.105865,417.779846 385.163971,417.738800 
	C385.851349,417.253265 386.492157,416.701843 387.747162,415.992004 
	C388.201294,415.351562 388.655426,414.711090 389.353363,413.912170 
	C389.211212,413.903992 389.069031,413.895782 388.308167,414.008362 
M46.588818,187.528244 
	C46.337704,187.892960 46.086590,188.257690 45.835472,188.622391 
	C46.251675,188.676834 46.667873,188.731277 47.084072,188.785736 
	C47.080086,188.174789 47.076103,187.563828 47.396629,186.487320 
	C47.613686,185.647583 47.830738,184.807846 48.354881,183.518692 
	C48.779015,183.025009 49.203148,182.531311 49.627281,182.037628 
	C49.244038,181.856857 48.860798,181.676086 48.477558,181.495331 
	C48.289867,182.347244 48.102180,183.199173 47.606281,184.515091 
	C47.346249,185.375427 47.086216,186.235748 46.588818,187.528244 
M76.306870,127.223610 
	C75.915482,128.109146 75.524086,128.994690 75.132690,129.880219 
	C75.508156,130.019119 75.883629,130.158005 76.259094,130.296890 
	C76.552864,129.255020 76.846626,128.213135 77.666985,127.011421 
	C77.884285,126.550896 78.101585,126.090370 78.318893,125.629852 
	C77.823799,126.038765 77.328712,126.447678 76.306870,127.223610 
M413.192780,389.019714 
	C412.423615,389.927368 411.654419,390.835022 410.885223,391.742676 
	C411.289520,392.025360 411.693817,392.308075 412.098114,392.590759 
	C412.763672,391.413208 413.429260,390.235657 414.479492,388.784119 
	C414.462677,388.416748 414.445892,388.049377 414.429077,387.682007 
	C414.230194,388.071777 414.031311,388.461517 413.192780,389.019714 
M443.442657,341.407043 
	C441.095886,345.979645 438.749115,350.552216 436.402344,355.124786 
	C436.950928,355.377014 437.499542,355.629242 438.048126,355.881470 
	C440.042633,350.928131 442.037140,345.974792 444.402588,340.763275 
	C444.390625,340.432037 444.378662,340.100769 444.366699,339.769531 
	C444.232849,340.167969 444.098999,340.566406 443.442657,341.407043 
M111.539436,89.868454 
	C111.879089,89.509941 112.218742,89.151428 113.146172,88.439575 
	C113.927536,87.817345 114.710869,87.197563 115.489983,86.572533 
	C166.563797,45.599216 224.592834,30.570959 288.970947,41.318298 
	C325.238403,47.372818 357.989746,62.334263 386.020721,86.269997 
	C442.031281,134.097549 468.229340,194.854553 463.052551,268.641724 
	C462.412598,277.763672 460.887909,286.823517 459.773193,295.912140 
	C461.156738,293.466614 462.146210,290.851471 462.684387,288.146545 
	C469.096283,255.921127 470.136200,223.705872 461.970581,191.600815 
	C445.034760,125.013870 406.574158,75.649666 343.424042,47.517887 
	C292.424988,24.799070 239.946198,23.715521 187.278152,42.365223 
	C159.081650,52.349575 133.677597,67.190659 111.198494,87.869659 
	C110.812332,88.272560 110.426170,88.675461 109.406296,89.288338 
	C106.028854,92.687424 102.651405,96.086502 99.273956,99.485588 
	C99.585670,99.803154 99.897385,100.120728 100.209091,100.438301 
	C103.830971,96.972229 107.452843,93.506165 111.539436,89.868454 
M342.595581,324.854950 
	C342.724091,324.669617 342.852631,324.484253 343.495331,324.827515 
	C348.214691,332.853485 354.808350,337.935669 364.519440,337.567841 
	C374.425781,337.192596 380.104431,331.024139 383.943451,322.638794 
	C385.816681,318.547241 387.580566,314.405640 388.967102,311.256256 
	C391.859436,317.036255 394.043488,323.709137 398.148773,328.846832 
	C401.224457,332.696075 412.363495,330.250061 418.192749,325.751740 
	C412.413055,314.252411 414.066620,301.910431 414.423492,289.635956 
	C414.640045,282.186310 414.565491,274.671661 413.755341,267.281158 
	C413.492310,264.881561 410.851685,261.402374 408.658142,260.817108 
	C403.074799,259.327332 397.129852,259.192749 391.001923,258.477509 
	C391.381866,263.659973 391.660767,267.464630 391.939667,271.269287 
	C385.137451,263.805084 377.484406,261.471222 368.059875,263.647156 
	C357.822937,266.010620 350.418671,271.967834 345.052765,280.669037 
	C339.072845,290.365967 337.104370,300.953186 339.104553,312.997406 
	C331.599701,306.310883 322.982971,304.027649 314.239868,301.878143 
	C311.243256,301.141418 308.182709,299.812561 305.706360,297.997162 
	C301.186188,294.683502 301.582214,288.173309 306.093201,285.294861 
	C311.790405,281.659515 320.081299,283.711182 323.322876,289.598419 
	C324.109619,291.027283 324.736511,292.544159 325.414917,293.974243 
	C332.824707,292.569153 336.855652,288.693298 336.678680,283.291656 
	C336.506836,278.046783 332.217743,273.726501 325.500549,273.169891 
	C312.074554,272.057373 299.571808,275.329773 288.956970,283.658142 
	C278.952942,291.507202 279.503448,304.917236 290.043060,312.055389 
	C294.185791,314.861206 299.424042,316.046356 304.157471,317.984070 
	C307.818787,319.482849 311.946136,320.393921 314.954834,322.736725 
	C316.861481,324.221405 318.247437,328.091827 317.757904,330.455505 
	C317.264526,332.837738 314.528931,335.459717 312.124359,336.585846 
	C307.956146,338.537933 302.023041,335.827209 299.775909,331.651581 
	C298.612274,329.489288 297.791870,327.142212 296.770905,324.773041 
	C289.134857,324.205017 283.471863,328.954895 278.354218,332.960388 
	C270.333984,339.237579 262.200775,343.416412 251.903763,342.091705 
	C246.498566,341.396301 242.847733,338.129791 239.706421,333.426819 
	C252.579407,331.492645 263.514374,327.004211 272.608276,318.603760 
	C279.982880,311.791504 282.253662,303.877045 279.250977,296.195587 
	C276.366180,288.815674 268.642395,284.122589 259.178040,283.998993 
	C239.953171,283.747864 224.779709,294.541351 216.483582,313.897736 
	C216.059113,313.585480 215.634659,313.273193 215.160202,312.030121 
	C215.066650,303.209839 215.465622,294.350586 214.771667,285.577820 
	C213.526657,269.838776 209.556046,266.712891 193.741653,267.101715 
	C190.217789,267.188354 188.736664,268.180023 187.908066,271.983215 
	C183.315765,293.061188 176.264282,313.235199 164.226944,331.375824 
	C163.301315,332.770752 162.200516,334.049438 160.704147,336.005737 
	C159.251877,330.992950 158.148575,327.009827 156.943207,323.057800 
	C153.638367,312.222412 150.069443,301.489716 143.191116,292.257782 
	C135.883347,282.449493 124.509872,278.592896 113.156029,282.085907 
	C113.776138,284.967163 114.481674,287.850159 115.010010,290.765259 
	C118.103416,307.833099 116.500801,324.951752 115.610374,342.075317 
	C115.187035,350.216431 114.942696,358.387238 115.125702,366.533173 
	C115.277191,373.276886 119.127388,379.141998 123.538399,380.041962 
	C130.139938,381.388885 136.291626,380.152344 141.664978,376.464661 
	C134.652832,356.586731 139.554733,336.796387 139.865479,317.003571 
	C141.228516,318.249176 141.829224,319.649139 142.352859,321.077332 
	C145.268478,329.029297 147.722794,337.186462 151.177353,344.895935 
	C155.810135,355.234772 166.638474,356.867310 174.236160,348.414612 
	C177.739014,344.517517 180.489624,339.809967 182.937881,335.133057 
	C186.053055,329.182068 188.515823,322.889557 191.510757,316.182343 
	C191.510757,322.908356 191.456375,328.951599 191.524872,334.993439 
	C191.605682,342.121094 191.287231,349.307251 192.118423,356.352783 
	C192.639191,360.766815 195.018066,365.073669 200.147415,366.158966 
	C206.606018,367.525513 212.576050,366.070740 218.050980,362.525452 
	C214.401520,352.176910 213.079956,339.387726 215.070999,332.776001 
	C215.507874,333.572540 215.916733,334.035553 216.027802,334.561462 
	C219.528305,351.138489 232.255859,361.125732 252.892731,357.912994 
	C265.286194,355.983582 275.282715,350.663574 280.556427,338.076630 
	C280.556427,338.076630 281.016846,337.892700 281.593292,338.289886 
	C283.106506,343.342773 287.058075,345.826111 291.712158,346.914520 
	C306.106323,350.280853 319.809357,348.298187 332.265198,340.180084 
	C337.516998,336.757202 341.329315,331.933228 342.595581,324.854950 
M273.923431,213.280289 
	C273.058167,206.456360 272.192902,199.632431 271.327606,192.808487 
	C271.747986,192.729752 272.168365,192.651001 272.588745,192.572266 
	C273.667267,195.440353 274.551331,198.400711 275.860352,201.159424 
	C279.969757,209.819763 286.088074,215.889557 296.353180,216.248383 
	C306.798401,216.613495 313.027588,210.782791 317.124573,201.964172 
	C319.343719,197.187576 321.368256,192.320572 323.678253,187.042679 
	C325.571411,195.208084 323.981995,205.019073 333.297089,208.452744 
	C339.538208,210.753296 346.331787,209.004517 350.991882,205.406235 
	C349.783539,199.200897 348.017853,193.895233 347.866608,188.543930 
	C347.584961,178.575363 348.491058,168.579346 348.455109,158.596375 
	C348.391571,140.941574 347.702637,136.376999 325.135376,138.189423 
	C324.987793,138.201279 324.851654,138.355911 324.645325,138.484192 
	C324.879059,142.143814 325.115936,145.852020 325.459930,151.237885 
	C315.837494,139.259308 305.102722,140.020065 293.973389,145.043472 
	C283.108521,149.947479 277.562256,159.700409 272.874146,170.085602 
	C273.307098,156.221558 273.954071,142.666962 269.878021,129.456421 
	C269.331818,127.686226 268.252563,125.378952 266.788025,124.715263 
	C260.494476,121.863205 253.813690,121.704170 246.676407,122.524597 
	C252.161255,144.414902 250.480209,165.842728 249.242493,187.279358 
	C248.830276,194.418884 248.810638,201.607391 249.099106,208.753799 
	C249.395874,216.105362 253.397766,222.033447 258.303589,222.735031 
	C264.561646,223.630005 270.514160,222.578079 275.962830,218.756348 
	C275.301056,217.089188 274.700317,215.575806 273.923431,213.280289 
M163.573166,168.032532 
	C157.485092,179.293076 151.328156,190.517365 145.366714,201.844559 
	C144.166580,204.124908 143.016327,204.996307 140.365219,204.394775 
	C137.057388,203.644241 133.622009,203.455872 130.333145,203.036453 
	C128.196365,210.453857 133.135162,213.279755 137.794449,215.922729 
	C136.035690,221.087204 134.102310,225.859283 132.803619,230.798248 
	C131.025848,237.559219 135.756271,244.371292 142.634430,244.459427 
	C146.821381,244.513062 151.051163,243.111237 155.217484,242.167847 
	C157.647751,241.617523 157.861740,239.931473 158.197830,237.426651 
	C159.135574,230.437973 161.001877,223.568848 162.649567,216.687958 
	C162.822006,215.967880 163.913055,215.084091 164.692581,214.951736 
	C173.640579,213.432495 182.610794,212.044098 191.471130,210.637344 
	C192.747421,215.478683 193.608002,219.544617 194.894501,223.471008 
	C198.571960,234.694702 204.159149,236.971497 214.533401,231.571991 
	C217.426559,230.066162 220.187637,228.306595 222.964722,226.689407 
	C215.197800,212.268799 212.675003,196.758240 208.948044,181.617508 
	C205.732697,168.555237 202.717499,155.434235 199.034271,142.504288 
	C198.258408,139.780624 195.334381,136.452835 192.743500,135.717651 
	C187.493454,134.227951 181.794052,134.321884 178.153122,133.952820 
	C172.976471,146.103912 168.446625,156.736801 163.573166,168.032532 
M403.447083,399.012177 
	C400.568695,401.910797 397.690338,404.809418 394.811951,407.708038 
	C394.959656,407.810791 395.107330,407.913574 395.255035,408.016357 
	C398.923096,404.522095 402.591187,401.027863 406.852264,396.968719 
	C405.451996,397.719116 404.691956,398.126404 403.447083,399.012177 
M51.891293,176.329346 
	C52.543896,174.472198 53.196495,172.615051 53.849098,170.757904 
	C53.332405,170.585342 52.815712,170.412796 52.299023,170.240234 
	C51.116337,173.173813 49.933655,176.107391 48.750969,179.040970 
	C49.186722,179.243530 49.622475,179.446091 50.058224,179.648651 
	C50.561852,178.758804 51.065479,177.868942 51.891293,176.329346 
M93.616699,104.859535 
	C93.326370,105.447037 93.036034,106.034538 92.745697,106.622040 
	C92.968338,106.760666 93.190971,106.899292 93.413605,107.037910 
	C95.269371,105.433083 97.125130,103.828262 98.980896,102.223434 
	C98.591385,101.815575 98.201874,101.407715 97.812370,100.999863 
	C96.567154,102.128860 95.321945,103.257858 93.616699,104.859535 
M382.892273,419.915283 
	C382.886688,419.751251 382.911804,419.578094 382.866638,419.425781 
	C382.823822,419.281525 382.642975,419.038544 382.632385,419.044159 
	C381.101593,419.861389 379.580811,420.697357 378.059601,421.532471 
	C378.362366,422.038361 378.665131,422.544250 378.967926,423.050140 
	C380.214569,422.208832 381.461243,421.367523 382.892273,419.915283 
M457.751953,309.424255 
	C457.637115,308.856476 457.522308,308.288666 457.407532,307.720917 
	C456.582489,308.787445 455.757477,309.853973 454.932434,310.920502 
	C455.334259,311.202454 455.736084,311.484406 456.137878,311.766327 
	C456.585632,311.183044 457.033356,310.599731 457.751953,309.424255 
M46.165562,192.685593 
	C46.259514,192.036270 46.353466,191.386932 46.447430,190.737610 
	C45.883553,190.929855 45.319679,191.122086 44.755802,191.314316 
	C45.034485,191.820755 45.313171,192.327194 46.165562,192.685593 
M45.486671,195.304520 
	C45.114403,194.936661 44.742134,194.568787 44.369873,194.200928 
	C44.089584,194.506287 43.809292,194.811646 43.528992,195.117004 
	C44.041924,195.316223 44.554855,195.515427 45.486671,195.304520 
M435.336243,358.815399 
	C434.739166,359.221771 434.142090,359.628174 433.545013,360.034576 
	C433.785522,360.276489 434.026031,360.518433 434.266541,360.760345 
	C434.596405,360.275696 434.926270,359.791016 435.336243,358.815399 
M455.802795,314.900299 
	C455.547668,314.419739 455.292542,313.939148 455.037415,313.458557 
	C454.818665,313.634033 454.599915,313.809509 454.381165,313.984985 
	C454.729126,314.415710 455.077057,314.846466 455.802795,314.900299 
M432.122864,364.594116 
	C432.068726,364.197845 432.014557,363.801575 431.960419,363.405304 
	C431.714478,363.567017 431.237152,363.810608 431.260651,363.876953 
	C431.400269,364.271332 431.655762,364.624725 432.122864,364.594116 
M88.583862,112.805428 
	C88.205627,112.801346 87.827194,112.793526 87.450165,112.812881 
	C87.439888,112.813408 87.434265,113.242821 87.443878,113.243553 
	C87.820511,113.272224 88.199181,113.274269 88.583862,112.805428 
M452.422607,320.196991 
	C452.805237,320.201843 453.187866,320.206696 453.570496,320.211548 
	C453.572449,320.052734 453.585175,319.755859 453.574799,319.755066 
	C453.193787,319.725342 452.810608,319.723083 452.422607,320.196991 
M452.281219,322.451904 
	C452.005341,322.714447 451.726868,322.974609 451.468140,323.253113 
	C451.461456,323.260345 451.670837,323.468323 451.779449,323.582672 
	C452.055298,323.319641 452.331177,323.056610 452.281219,322.451904 
M448.279633,332.468933 
	C448.011932,332.723694 447.741730,332.976105 447.490631,333.246307 
	C447.484192,333.253235 447.687347,333.454926 447.792755,333.565796 
	C448.060425,333.310852 448.328064,333.055878 448.279633,332.468933 
M421.333435,379.704102 
	C420.927185,379.912384 420.490417,380.082306 420.140137,380.360962 
	C420.069092,380.417480 420.324524,380.884399 420.429504,381.162109 
	C420.718811,380.832855 421.008148,380.503571 421.333435,379.704102 
M423.101898,376.330353 
	C423.360748,376.543030 423.619568,376.755707 423.878448,376.968384 
	C424.030884,376.533539 424.183350,376.098694 424.335785,375.663849 
	C423.963745,375.729767 423.591736,375.795685 423.101898,376.330353 
M84.274673,117.460884 
	C84.002159,117.719429 83.729652,117.977982 83.457138,118.236526 
	C83.564339,118.349197 83.758812,118.565720 83.766151,118.559547 
	C84.053619,118.317970 84.324059,118.056114 84.274673,117.460884 
M54.528473,168.280670 
	C54.275990,168.015106 54.023506,167.749527 53.771015,167.483963 
	C53.661270,167.588333 53.450417,167.777756 53.456364,167.784836 
	C53.692104,168.065109 53.947517,168.328842 54.528473,168.280670 
M55.798668,163.416687 
	C55.793850,163.796204 55.789032,164.175705 55.784214,164.555222 
	C55.941433,164.556427 56.235191,164.568512 56.236095,164.557236 
	C56.266186,164.180283 56.268330,163.801102 55.798668,163.416687 
M458.912140,302.679901 
	C459.128571,302.385254 459.344971,302.090607 459.561371,301.795929 
	C459.248627,301.993713 458.935852,302.191528 458.912140,302.679901 
M80.530884,121.813293 
	C80.404884,122.178093 80.259827,122.538322 80.170212,122.911850 
	C80.153816,122.980186 80.363060,123.102661 80.468155,123.200142 
	C80.593994,122.835358 80.719841,122.470573 80.530884,121.813293 
M416.376129,384.642395 
	C416.491333,384.868286 416.606567,385.094208 416.721802,385.320129 
	C416.925781,385.120758 417.129761,384.921356 417.333710,384.721954 
	C417.111206,384.600464 416.888733,384.478973 416.376129,384.642395 
M460.453400,297.644104 
	C460.228607,297.946106 460.003845,298.248108 459.779083,298.550110 
	C460.091156,298.355957 460.403229,298.161835 460.453400,297.644104 
M69.281723,137.831573 
	C69.387161,137.975616 69.492599,138.119659 69.598038,138.263718 
	C69.577530,138.065918 69.557022,137.868134 69.281723,137.831573 
M458.476074,305.352844 
	C458.529358,305.151215 458.582642,304.949615 458.635956,304.747986 
	C458.505219,304.877960 458.374481,305.007935 458.476074,305.352844 
M66.274803,142.826950 
	C66.383842,142.975067 66.492889,143.123184 66.601929,143.271301 
	C66.580223,143.067535 66.558525,142.863785 66.274803,142.826950 
M68.515594,141.417633 
	C68.515594,141.417633 68.573898,141.519379 68.515594,141.417633 
M71.483795,136.582458 
	C71.483795,136.582458 71.421867,136.475983 71.483795,136.582458 
M391.485107,411.565094 
	C391.485107,411.565094 391.437988,411.478516 391.485107,411.565094 
M91.486183,108.566032 
	C91.486183,108.566032 91.438225,108.477341 91.486183,108.566032 
M73.484055,133.579224 
	C73.484055,133.579224 73.424179,133.474823 73.484055,133.579224 
z"/>
<path fill="#FCCA00" opacity="1.000000" stroke="none" 
	d="
M280.079163,338.210876 
	C275.282715,350.663574 265.286194,355.983582 252.892731,357.912994 
	C232.255859,361.125732 219.528305,351.138489 216.027802,334.561462 
	C215.916733,334.035553 215.507874,333.572540 215.070999,332.776001 
	C213.079956,339.387726 214.401520,352.176910 218.050980,362.525452 
	C212.576050,366.070740 206.606018,367.525513 200.147415,366.158966 
	C195.018066,365.073669 192.639191,360.766815 192.118423,356.352783 
	C191.287231,349.307251 191.605682,342.121094 191.524872,334.993439 
	C191.456375,328.951599 191.510757,322.908356 191.510757,316.182343 
	C188.515823,322.889557 186.053055,329.182068 182.937881,335.133057 
	C180.489624,339.809967 177.739014,344.517517 174.236160,348.414612 
	C166.638474,356.867310 155.810135,355.234772 151.177353,344.895935 
	C147.722794,337.186462 145.268478,329.029297 142.352859,321.077332 
	C141.829224,319.649139 141.228516,318.249176 139.865479,317.003571 
	C139.554733,336.796387 134.652832,356.586731 141.664978,376.464661 
	C136.291626,380.152344 130.139938,381.388885 123.538399,380.041962 
	C119.127388,379.141998 115.277191,373.276886 115.125702,366.533173 
	C114.942696,358.387238 115.187035,350.216431 115.610374,342.075317 
	C116.500801,324.951752 118.103416,307.833099 115.010010,290.765259 
	C114.481674,287.850159 113.776138,284.967163 113.156029,282.085907 
	C124.509872,278.592896 135.883347,282.449493 143.191116,292.257782 
	C150.069443,301.489716 153.638367,312.222412 156.943207,323.057800 
	C158.148575,327.009827 159.251877,330.992950 160.704147,336.005737 
	C162.200516,334.049438 163.301315,332.770752 164.226944,331.375824 
	C176.264282,313.235199 183.315765,293.061188 187.908066,271.983215 
	C188.736664,268.180023 190.217789,267.188354 193.741653,267.101715 
	C209.556046,266.712891 213.526657,269.838776 214.771667,285.577820 
	C215.465622,294.350586 215.066650,303.209839 214.992477,312.808167 
	C211.646439,315.969879 213.547394,317.933624 215.657715,321.107880 
	C216.243301,318.010864 216.622421,316.005798 217.001526,314.000763 
	C224.779709,294.541351 239.953171,283.747864 259.178040,283.998993 
	C268.642395,284.122589 276.366180,288.815674 279.250977,296.195587 
	C282.253662,303.877045 279.982880,311.791504 272.608276,318.603760 
	C263.514374,327.004211 252.579407,331.492645 239.706421,333.426819 
	C242.847733,338.129791 246.498566,341.396301 251.903763,342.091705 
	C262.200775,343.416412 270.333984,339.237579 278.354218,332.960388 
	C283.471863,328.954895 289.134857,324.205017 296.770905,324.773041 
	C297.791870,327.142212 298.612274,329.489288 299.775909,331.651581 
	C302.023041,335.827209 307.956146,338.537933 312.124359,336.585846 
	C314.528931,335.459717 317.264526,332.837738 317.757904,330.455505 
	C318.247437,328.091827 316.861481,324.221405 314.954834,322.736725 
	C311.946136,320.393921 307.818787,319.482849 304.157471,317.984070 
	C299.424042,316.046356 294.185791,314.861206 290.043060,312.055389 
	C279.503448,304.917236 278.952942,291.507202 288.956970,283.658142 
	C299.571808,275.329773 312.074554,272.057373 325.500549,273.169891 
	C332.217743,273.726501 336.506836,278.046783 336.678680,283.291656 
	C336.855652,288.693298 332.824707,292.569153 325.414917,293.974243 
	C324.736511,292.544159 324.109619,291.027283 323.322876,289.598419 
	C320.081299,283.711182 311.790405,281.659515 306.093201,285.294861 
	C301.582214,288.173309 301.186188,294.683502 305.706360,297.997162 
	C308.182709,299.812561 311.243256,301.141418 314.239868,301.878143 
	C322.982971,304.027649 331.599701,306.310883 339.104553,312.997406 
	C337.104370,300.953186 339.072845,290.365967 345.052765,280.669037 
	C350.418671,271.967834 357.822937,266.010620 368.059875,263.647156 
	C377.484406,261.471222 385.137451,263.805084 391.939667,271.269287 
	C391.660767,267.464630 391.381866,263.659973 391.001923,258.477509 
	C397.129852,259.192749 403.074799,259.327332 408.658142,260.817108 
	C410.851685,261.402374 413.492310,264.881561 413.755341,267.281158 
	C414.565491,274.671661 414.640045,282.186310 414.423492,289.635956 
	C414.066620,301.910431 412.413055,314.252411 418.192749,325.751740 
	C412.363495,330.250061 401.224457,332.696075 398.148773,328.846832 
	C394.043488,323.709137 391.859436,317.036255 388.967102,311.256256 
	C387.580566,314.405640 385.816681,318.547241 383.943451,322.638794 
	C380.104431,331.024139 374.425781,337.192596 364.519440,337.567841 
	C354.808350,337.935669 348.214691,332.853485 343.149780,324.377136 
	C342.573029,324.393433 342.341858,324.860138 342.110657,325.326813 
	C341.329315,331.933228 337.516998,336.757202 332.265198,340.180084 
	C319.809357,348.298187 306.106323,350.280853 291.712158,346.914520 
	C287.058075,345.826111 283.106506,343.342773 281.394836,337.858459 
	C281.097839,337.088226 280.999298,336.749420 280.900757,336.410583 
	C280.626892,337.010681 280.353027,337.610779 280.079163,338.210876 
M384.428558,273.756195 
	C376.394379,272.007019 369.887512,274.582336 365.364594,281.277283 
	C359.039490,290.639771 358.396393,300.804047 362.505127,311.217499 
	C364.149445,315.385040 366.837128,318.777588 371.794220,319.191437 
	C376.702972,319.601257 379.960449,316.603546 381.406158,312.636505 
	C384.790039,303.350891 387.773468,293.889282 390.301605,284.335571 
	C391.437347,280.043793 389.531921,276.153809 384.428558,273.756195 
M254.228485,316.835693 
	C255.292526,316.034485 256.417603,315.302032 257.410431,314.420654 
	C262.787872,309.646881 263.582489,303.038696 259.356689,298.586700 
	C255.498840,294.522278 248.006241,295.508484 243.438080,300.724762 
	C242.675873,301.595093 241.999039,302.569580 241.438400,303.582092 
	C237.971375,309.843750 237.120834,316.634369 237.046173,324.630554 
	C243.039337,321.927521 248.308563,319.550995 254.228485,316.835693 
M215.470169,328.171600 
	C215.603470,327.084259 215.736771,325.996918 215.870071,324.909607 
	C215.366974,324.936707 214.863861,324.963837 214.360764,324.990967 
	C214.534378,326.019379 214.707993,327.047791 215.470169,328.171600 
z"/>
<path fill="#FCC900" opacity="1.000000" stroke="none" 
	d="
M274.011505,213.671356 
	C274.700317,215.575806 275.301056,217.089188 275.962830,218.756348 
	C270.514160,222.578079 264.561646,223.630005 258.303589,222.735031 
	C253.397766,222.033447 249.395874,216.105362 249.099106,208.753799 
	C248.810638,201.607391 248.830276,194.418884 249.242493,187.279358 
	C250.480209,165.842728 252.161255,144.414902 246.676407,122.524597 
	C253.813690,121.704170 260.494476,121.863205 266.788025,124.715263 
	C268.252563,125.378952 269.331818,127.686226 269.878021,129.456421 
	C273.954071,142.666962 273.307098,156.221558 272.874146,170.085602 
	C277.562256,159.700409 283.108521,149.947479 293.973389,145.043472 
	C305.102722,140.020065 315.837494,139.259308 325.459930,151.237885 
	C325.115936,145.852020 324.879059,142.143814 324.645325,138.484192 
	C324.851654,138.355911 324.987793,138.201279 325.135376,138.189423 
	C347.702637,136.376999 348.391571,140.941574 348.455109,158.596375 
	C348.491058,168.579346 347.584961,178.575363 347.866608,188.543930 
	C348.017853,193.895233 349.783539,199.200897 350.991882,205.406235 
	C346.331787,209.004517 339.538208,210.753296 333.297089,208.452744 
	C323.981995,205.019073 325.571411,195.208084 323.678253,187.042679 
	C321.368256,192.320572 319.343719,197.187576 317.124573,201.964172 
	C313.027588,210.782791 306.798401,216.613495 296.353180,216.248383 
	C286.088074,215.889557 279.969757,209.819763 275.860352,201.159424 
	C274.551331,198.400711 273.667267,195.440353 272.588745,192.572266 
	C272.168365,192.651001 271.747986,192.729752 271.327606,192.808487 
	C272.192902,199.632431 273.058167,206.456360 274.011505,213.671356 
M299.494049,159.058319 
	C292.591644,168.870102 291.938507,179.423157 296.168488,190.343765 
	C297.711304,194.326736 300.519318,197.528137 305.198029,197.996689 
	C309.850952,198.462708 312.613556,195.518784 314.712585,191.952103 
	C320.023346,182.928040 322.815216,173.017380 323.920868,162.709915 
	C324.668762,155.737610 320.420258,151.731522 313.424530,151.983734 
	C307.998932,152.179321 303.438477,154.245483 299.494049,159.058319 
z"/>
<path fill="#FCC900" opacity="1.000000" stroke="none" 
	d="
M163.744965,167.701111 
	C168.446625,156.736801 172.976471,146.103912 178.153122,133.952820 
	C181.794052,134.321884 187.493454,134.227951 192.743500,135.717651 
	C195.334381,136.452835 198.258408,139.780624 199.034271,142.504288 
	C202.717499,155.434235 205.732697,168.555237 208.948044,181.617508 
	C212.675003,196.758240 215.197800,212.268799 222.964722,226.689407 
	C220.187637,228.306595 217.426559,230.066162 214.533401,231.571991 
	C204.159149,236.971497 198.571960,234.694702 194.894501,223.471008 
	C193.608002,219.544617 192.747421,215.478683 191.471130,210.637344 
	C182.610794,212.044098 173.640579,213.432495 164.692581,214.951736 
	C163.913055,215.084091 162.822006,215.967880 162.649567,216.687958 
	C161.001877,223.568848 159.135574,230.437973 158.197830,237.426651 
	C157.861740,239.931473 157.647751,241.617523 155.217484,242.167847 
	C151.051163,243.111237 146.821381,244.513062 142.634430,244.459427 
	C135.756271,244.371292 131.025848,237.559219 132.803619,230.798248 
	C134.102310,225.859283 136.035690,221.087204 137.794449,215.922729 
	C133.135162,213.279755 128.196365,210.453857 130.333145,203.036453 
	C133.622009,203.455872 137.057388,203.644241 140.365219,204.394775 
	C143.016327,204.996307 144.166580,204.124908 145.366714,201.844559 
	C151.328156,190.517365 157.485092,179.293076 163.744965,167.701111 
M186.875717,172.593536 
	C185.537140,169.322830 185.023544,172.176208 184.584808,172.996445 
	C180.055283,181.464478 175.581268,189.962433 171.133881,198.474030 
	C169.952240,200.735504 168.914795,203.072327 167.547226,205.925079 
	C175.780655,205.433899 183.130203,204.995453 190.689758,204.544479 
	C189.387421,193.685150 188.166367,183.503586 186.875717,172.593536 
z"/>
<path fill="#F5F1F0" opacity="1.000000" stroke="none" 
	d="
M111.731468,87.693092 
	C133.677597,67.190659 159.081650,52.349575 187.278152,42.365223 
	C239.946198,23.715521 292.424988,24.799070 343.424042,47.517887 
	C406.574158,75.649666 445.034760,125.013870 461.970581,191.600815 
	C470.136200,223.705872 469.096283,255.921127 462.684387,288.146545 
	C462.146210,290.851471 461.156738,293.466614 459.773193,295.912140 
	C460.887909,286.823517 462.412598,277.763672 463.052551,268.641724 
	C468.229340,194.854553 442.031281,134.097549 386.020721,86.269997 
	C357.989746,62.334263 325.238403,47.372818 288.970947,41.318298 
	C224.592834,30.570959 166.563797,45.599216 115.489983,86.572533 
	C114.710869,87.197563 113.927536,87.817345 112.651054,88.337158 
	C112.014450,88.054184 111.872955,87.873634 111.731468,87.693092 
z"/>
<path fill="#11071F" opacity="1.000000" stroke="none" 
	d="
M403.689514,398.772949 
	C404.691956,398.126404 405.451996,397.719116 406.852264,396.968719 
	C402.591187,401.027863 398.923096,404.522095 395.255035,408.016357 
	C395.107330,407.913574 394.959656,407.810791 394.811951,407.708038 
	C397.690338,404.809418 400.568695,401.910797 403.689514,398.772949 
z"/>
<path fill="#CAC5C8" opacity="1.000000" stroke="none" 
	d="
M111.074722,90.040092 
	C107.452843,93.506165 103.830971,96.972229 100.209091,100.438301 
	C99.897385,100.120728 99.585670,99.803154 99.273956,99.485588 
	C102.651405,96.086502 106.028854,92.687424 109.844284,89.392235 
	C110.510063,89.730423 110.774216,89.911743 111.074722,90.040092 
z"/>
<path fill="#11071F" opacity="1.000000" stroke="none" 
	d="
M444.031677,341.021423 
	C442.037140,345.974792 440.042633,350.928131 438.048126,355.881470 
	C437.499542,355.629242 436.950928,355.377014 436.402344,355.124786 
	C438.749115,350.552216 441.095886,345.979645 443.719666,341.201172 
	C443.996643,340.995331 444.031647,341.021423 444.031677,341.021423 
z"/>
<path fill="#11071F" opacity="1.000000" stroke="none" 
	d="
M51.730202,176.654205 
	C51.065479,177.868942 50.561852,178.758804 50.058224,179.648651 
	C49.622475,179.446091 49.186722,179.243530 48.750969,179.040970 
	C49.933655,176.107391 51.116337,173.173813 52.299023,170.240234 
	C52.815712,170.412796 53.332405,170.585342 53.849098,170.757904 
	C53.196495,172.615051 52.543896,174.472198 51.730202,176.654205 
z"/>
<path fill="#4C3612" opacity="1.000000" stroke="none" 
	d="
M216.742554,313.949249 
	C216.622421,316.005798 216.243301,318.010864 215.657715,321.107880 
	C213.547394,317.933624 211.646439,315.969879 215.017471,313.273560 
	C215.634659,313.273193 216.059113,313.585480 216.742554,313.949249 
z"/>
<path fill="#11071F" opacity="1.000000" stroke="none" 
	d="
M93.846718,104.623199 
	C95.321945,103.257858 96.567154,102.128860 97.812370,100.999863 
	C98.201874,101.407715 98.591385,101.815575 98.980896,102.223434 
	C97.125130,103.828262 95.269371,105.433083 93.413605,107.037910 
	C93.190971,106.899292 92.968338,106.760666 92.745697,106.622040 
	C93.036034,106.034538 93.326370,105.447037 93.846718,104.623199 
z"/>
<path fill="#11071F" opacity="1.000000" stroke="none" 
	d="
M382.800110,420.220764 
	C381.461243,421.367523 380.214569,422.208832 378.967926,423.050140 
	C378.665131,422.544250 378.362366,422.038361 378.059601,421.532471 
	C379.580811,420.697357 381.101593,419.861389 382.632385,419.044159 
	C382.642975,419.038544 382.823822,419.281525 382.866638,419.425781 
	C382.911804,419.578094 382.886688,419.751251 382.800110,420.220764 
z"/>
<path fill="#11071F" opacity="1.000000" stroke="none" 
	d="
M457.616516,309.720337 
	C457.033356,310.599731 456.585632,311.183044 456.137878,311.766327 
	C455.736084,311.484406 455.334259,311.202454 454.932434,310.920502 
	C455.757477,309.853973 456.582489,308.787445 457.407532,307.720886 
	C457.522308,308.288666 457.637115,308.856476 457.616516,309.720337 
z"/>
<path fill="#11071F" opacity="1.000000" stroke="none" 
	d="
M65.080154,147.058868 
	C64.301819,148.348709 63.523487,149.638535 62.379086,150.973495 
	C62.013016,151.018616 61.923599,150.950424 61.923603,150.950424 
	C62.711002,149.658173 63.498398,148.365921 64.645645,147.033737 
	C65.005501,146.993820 65.080154,147.058868 65.080154,147.058868 
z"/>
<path fill="#11071F" opacity="1.000000" stroke="none" 
	d="
M414.094788,389.058105 
	C413.429260,390.235657 412.763672,391.413208 412.098114,392.590759 
	C411.693817,392.308075 411.289520,392.025360 410.885223,391.742676 
	C411.654419,390.835022 412.423615,389.927368 413.576965,388.988770 
	C413.961151,388.957855 414.094788,389.058105 414.094788,389.058105 
z"/>
<path fill="#11071F" opacity="1.000000" stroke="none" 
	d="
M45.878708,192.759613 
	C45.313171,192.327194 45.034485,191.820755 44.755806,191.314316 
	C45.319679,191.122086 45.883553,190.929855 46.447426,190.737610 
	C46.353466,191.386932 46.259514,192.036270 45.878708,192.759613 
z"/>
<path fill="#11071F" opacity="1.000000" stroke="none" 
	d="
M373.991882,426.016632 
	C374.597076,425.422180 375.194519,424.818817 375.832977,424.262573 
	C375.861450,424.237793 376.263092,424.641357 376.490906,424.845398 
	C375.881531,425.232056 375.272125,425.618713 374.331635,426.002686 
	C374.000549,426.000000 373.991882,426.016632 373.991882,426.016632 
z"/>
<path fill="#11071F" opacity="1.000000" stroke="none" 
	d="
M77.140396,127.171249 
	C76.846626,128.213135 76.552864,129.255020 76.259094,130.296890 
	C75.883629,130.158005 75.508156,130.019119 75.132690,129.880219 
	C75.524086,128.994690 75.915482,128.109146 76.649521,127.116241 
	C76.992165,127.008881 77.140388,127.171249 77.140396,127.171249 
z"/>
<path fill="#11071F" opacity="1.000000" stroke="none" 
	d="
M387.145203,416.167725 
	C386.492157,416.701843 385.851349,417.253265 385.163971,417.738800 
	C385.105865,417.779846 384.736206,417.379730 384.511261,417.184570 
	C385.077484,416.773743 385.643707,416.362885 386.607666,415.983643 
	C387.005432,416.015228 387.145203,416.167725 387.145203,416.167725 
z"/>
<path fill="#11071F" opacity="1.000000" stroke="none" 
	d="
M45.277229,195.509583 
	C44.554855,195.515427 44.041924,195.316223 43.528999,195.117004 
	C43.809292,194.811646 44.089584,194.506287 44.369869,194.200928 
	C44.742134,194.568787 45.114403,194.936661 45.277229,195.509583 
z"/>
<path fill="#11071F" opacity="1.000000" stroke="none" 
	d="
M435.296204,359.060852 
	C434.926270,359.791016 434.596405,360.275696 434.266541,360.760345 
	C434.026031,360.518433 433.785522,360.276489 433.545013,360.034576 
	C434.142090,359.628174 434.739166,359.221771 435.296204,359.060852 
z"/>
<path fill="#11071F" opacity="1.000000" stroke="none" 
	d="
M47.914494,184.051086 
	C48.102180,183.199173 48.289867,182.347244 48.477558,181.495331 
	C48.860798,181.676086 49.244038,181.856857 49.627281,182.037628 
	C49.203148,182.531311 48.779015,183.025009 48.168243,183.764893 
	C47.981606,184.011093 47.914494,184.051086 47.914494,184.051086 
z"/>
<path fill="#11071F" opacity="1.000000" stroke="none" 
	d="
M46.826180,187.096085 
	C47.086216,186.235748 47.346249,185.375427 47.760387,184.283081 
	C47.914494,184.051086 47.981606,184.011093 48.014698,183.989594 
	C47.830738,184.807846 47.613686,185.647583 47.173908,186.757645 
	C46.951187,187.027969 46.826180,187.096085 46.826180,187.096085 
z"/>
<path fill="#11071F" opacity="1.000000" stroke="none" 
	d="
M455.613892,315.088745 
	C455.077057,314.846466 454.729126,314.415710 454.381165,313.984985 
	C454.599915,313.809509 454.818665,313.634033 455.037415,313.458557 
	C455.292542,313.939148 455.547668,314.419739 455.613892,315.088745 
z"/>
<path fill="#F5F1F0" opacity="1.000000" stroke="none" 
	d="
M111.307083,89.954269 
	C110.774216,89.911743 110.510063,89.730423 110.161140,89.287247 
	C110.426170,88.675461 110.812332,88.272560 111.464981,87.781372 
	C111.872955,87.873634 112.014450,88.054184 112.357162,88.513824 
	C112.218742,89.151428 111.879089,89.509941 111.307083,89.954269 
z"/>
<path fill="#11071F" opacity="1.000000" stroke="none" 
	d="
M431.997620,364.792999 
	C431.655762,364.624725 431.400269,364.271332 431.260651,363.876953 
	C431.237152,363.810608 431.714478,363.567017 431.960419,363.405304 
	C432.014557,363.801575 432.068726,364.197845 431.997620,364.792999 
z"/>
<path fill="#11071F" opacity="1.000000" stroke="none" 
	d="
M88.580719,113.042618 
	C88.199181,113.274269 87.820511,113.272224 87.443878,113.243553 
	C87.434265,113.242821 87.439888,112.813408 87.450165,112.812881 
	C87.827194,112.793526 88.205627,112.801346 88.580719,113.042618 
z"/>
<path fill="#11071F" opacity="1.000000" stroke="none" 
	d="
M389.109558,414.070618 
	C388.655426,414.711090 388.201294,415.351562 387.446167,416.079865 
	C387.145203,416.167725 387.005432,416.015228 386.930847,415.942261 
	C387.340210,415.248962 387.824188,414.628662 388.659241,413.997681 
	C389.010345,413.986969 389.109558,414.070618 389.109558,414.070618 
z"/>
<path fill="#11071F" opacity="1.000000" stroke="none" 
	d="
M452.425171,319.957031 
	C452.810608,319.723083 453.193787,319.725342 453.574799,319.755066 
	C453.585175,319.755859 453.572449,320.052734 453.570496,320.211548 
	C453.187866,320.206696 452.805237,320.201843 452.425171,319.957031 
z"/>
<path fill="#11071F" opacity="1.000000" stroke="none" 
	d="
M452.444122,322.622742 
	C452.331177,323.056610 452.055298,323.319641 451.779449,323.582672 
	C451.670837,323.468323 451.461456,323.260345 451.468140,323.253113 
	C451.726868,322.974609 452.005341,322.714447 452.444122,322.622742 
z"/>
<path fill="#11071F" opacity="1.000000" stroke="none" 
	d="
M448.437683,332.634949 
	C448.328064,333.055878 448.060425,333.310852 447.792755,333.565796 
	C447.687347,333.454926 447.484192,333.253235 447.490631,333.246307 
	C447.741730,332.976105 448.011932,332.723694 448.437683,332.634949 
z"/>
<path fill="#11071F" opacity="1.000000" stroke="none" 
	d="
M421.315460,379.939209 
	C421.008148,380.503571 420.718811,380.832855 420.429474,381.162109 
	C420.324524,380.884399 420.069092,380.417480 420.140137,380.360962 
	C420.490417,380.082306 420.927185,379.912384 421.315460,379.939209 
z"/>
<path fill="#11071F" opacity="1.000000" stroke="none" 
	d="
M423.160797,376.095978 
	C423.591736,375.795685 423.963745,375.729767 424.335815,375.663849 
	C424.183350,376.098694 424.030884,376.533539 423.878418,376.968384 
	C423.619568,376.755707 423.360748,376.543030 423.160797,376.095978 
z"/>
<path fill="#11071F" opacity="1.000000" stroke="none" 
	d="
M84.435699,117.628891 
	C84.324059,118.056114 84.053619,118.317970 83.766151,118.559547 
	C83.758812,118.565720 83.564339,118.349197 83.457138,118.236526 
	C83.729652,117.977982 84.002159,117.719429 84.435699,117.628891 
z"/>
<path fill="#11071F" opacity="1.000000" stroke="none" 
	d="
M47.011654,186.990417 
	C47.076103,187.563828 47.080086,188.174789 47.084072,188.785736 
	C46.667873,188.731277 46.251675,188.676834 45.835472,188.622406 
	C46.086590,188.257690 46.337704,187.892960 46.707497,187.312164 
	C46.826180,187.096085 46.951187,187.027969 47.011654,186.990417 
z"/>
<path fill="#11071F" opacity="1.000000" stroke="none" 
	d="
M54.364426,168.437683 
	C53.947517,168.328842 53.692104,168.065109 53.456364,167.784836 
	C53.450417,167.777756 53.661270,167.588333 53.771019,167.483963 
	C54.023506,167.749527 54.275990,168.015106 54.364426,168.437683 
z"/>
<path fill="#11071F" opacity="1.000000" stroke="none" 
	d="
M56.036613,163.419464 
	C56.268330,163.801102 56.266186,164.180283 56.236095,164.557236 
	C56.235191,164.568512 55.941433,164.556427 55.784214,164.555222 
	C55.789032,164.175705 55.793850,163.796204 56.036613,163.419464 
z"/>
<path fill="#11071F" opacity="1.000000" stroke="none" 
	d="
M76.912888,126.932739 
	C77.328712,126.447678 77.823799,126.038765 78.318893,125.629852 
	C78.101585,126.090370 77.884285,126.550896 77.403687,127.091339 
	C77.140388,127.171249 76.992165,127.008881 76.912888,126.932739 
z"/>
<path fill="#11071F" opacity="1.000000" stroke="none" 
	d="
M59.091705,157.054489 
	C59.039825,157.974792 58.987946,158.895111 58.936066,159.815414 
	C58.696365,159.798904 58.456661,159.782410 58.216961,159.765900 
	C58.286736,158.958069 58.356510,158.150238 58.698307,157.153595 
	C58.970325,156.964783 59.091705,157.054489 59.091705,157.054489 
z"/>
<path fill="#11071F" opacity="1.000000" stroke="none" 
	d="
M458.767639,302.534607 
	C458.935852,302.191528 459.248627,301.993713 459.561371,301.795929 
	C459.344971,302.090607 459.128571,302.385254 458.767639,302.534607 
z"/>
<path fill="#11071F" opacity="1.000000" stroke="none" 
	d="
M80.688286,121.959534 
	C80.719841,122.470573 80.593994,122.835358 80.468155,123.200142 
	C80.363060,123.102661 80.153816,122.980186 80.170212,122.911850 
	C80.259827,122.538322 80.404884,122.178093 80.688286,121.959534 
z"/>
<path fill="#11071F" opacity="1.000000" stroke="none" 
	d="
M416.521179,384.499939 
	C416.888733,384.478973 417.111206,384.600464 417.333740,384.721985 
	C417.129761,384.921356 416.925781,385.120758 416.721802,385.320129 
	C416.606567,385.094208 416.491333,384.868286 416.521179,384.499939 
z"/>
<path fill="#11071F" opacity="1.000000" stroke="none" 
	d="
M460.584351,297.805908 
	C460.403229,298.161835 460.091156,298.355957 459.779083,298.550110 
	C460.003845,298.248108 460.228607,297.946106 460.584351,297.805908 
z"/>
<path fill="#FBC900" opacity="1.000000" stroke="none" 
	d="
M280.317810,338.143738 
	C280.353027,337.610779 280.626892,337.010681 280.900757,336.410583 
	C280.999298,336.749420 281.097839,337.088226 281.106628,337.659882 
	C281.016846,337.892700 280.556427,338.076630 280.317810,338.143738 
z"/>
<path fill="#11071F" opacity="1.000000" stroke="none" 
	d="
M69.409119,137.750946 
	C69.557022,137.868134 69.577530,138.065918 69.598038,138.263718 
	C69.492599,138.119659 69.387161,137.975616 69.409119,137.750946 
z"/>
<path fill="#11071F" opacity="1.000000" stroke="none" 
	d="
M458.359894,305.245361 
	C458.374481,305.007935 458.505219,304.877960 458.635956,304.747986 
	C458.582642,304.949615 458.529358,305.151215 458.359894,305.245361 
z"/>
<path fill="#FBC900" opacity="1.000000" stroke="none" 
	d="
M342.353119,325.090881 
	C342.341858,324.860138 342.573029,324.393433 342.892700,324.112854 
	C342.852631,324.484253 342.724091,324.669617 342.353119,325.090881 
z"/>
<path fill="#11071F" opacity="1.000000" stroke="none" 
	d="
M413.896790,388.904572 
	C414.031311,388.461517 414.230194,388.071777 414.429077,387.682007 
	C414.445892,388.049377 414.462677,388.416748 414.287140,388.921112 
	C414.094788,389.058105 413.961151,388.957855 413.896790,388.904572 
z"/>
<path fill="#11071F" opacity="1.000000" stroke="none" 
	d="
M60.092468,155.055283 
	C59.910057,155.599945 59.727646,156.144608 59.318470,156.871887 
	C59.091705,157.054489 58.970325,156.964783 58.912178,156.914948 
	C59.048512,156.330612 59.242989,155.796127 59.704071,155.113297 
	C59.970676,154.964966 60.092468,155.055283 60.092468,155.055283 
z"/>
<path fill="#11071F" opacity="1.000000" stroke="none" 
	d="
M66.405815,142.743484 
	C66.558525,142.863785 66.580223,143.067535 66.601929,143.271301 
	C66.492889,143.123184 66.383842,142.975067 66.405815,142.743484 
z"/>
<path fill="#11071F" opacity="1.000000" stroke="none" 
	d="
M60.909653,152.945236 
	C61.097099,152.402679 61.284542,151.860138 61.697792,151.134003 
	C61.923599,150.950424 62.013016,151.018616 62.055679,151.056839 
	C61.918053,151.638855 61.737766,152.182648 61.292297,152.879700 
	C61.027111,153.032944 60.909649,152.945236 60.909653,152.945236 
z"/>
<path fill="#11071F" opacity="1.000000" stroke="none" 
	d="
M61.082577,153.080872 
	C60.938114,153.653442 60.738190,154.178070 60.315369,154.878998 
	C60.092468,155.055283 59.970676,154.964966 59.912361,154.914841 
	C60.057751,154.342316 60.261459,153.819931 60.687408,153.121384 
	C60.909649,152.945236 61.027111,153.032944 61.082577,153.080872 
z"/>
<path fill="#11071F" opacity="1.000000" stroke="none" 
	d="
M443.980896,340.980103 
	C444.098999,340.566406 444.232849,340.167969 444.366699,339.769531 
	C444.378662,340.100769 444.390625,340.432037 444.217102,340.892334 
	C444.031647,341.021423 443.996643,340.995331 443.980896,340.980103 
z"/>
<path fill="#11071F" opacity="1.000000" stroke="none" 
	d="
M68.544746,141.468506 
	C68.573898,141.519379 68.515594,141.417633 68.544746,141.468506 
z"/>
<path fill="#11071F" opacity="1.000000" stroke="none" 
	d="
M64.972809,146.956635 
	C65.066345,146.916504 65.192558,146.913559 65.199463,146.984741 
	C65.080154,147.058868 65.005501,146.993820 64.972809,146.956635 
z"/>
<path fill="#11071F" opacity="1.000000" stroke="none" 
	d="
M71.452835,136.529221 
	C71.421867,136.475983 71.483795,136.582458 71.452835,136.529221 
z"/>
<path fill="#11071F" opacity="1.000000" stroke="none" 
	d="
M391.461548,411.521790 
	C391.437988,411.478516 391.485107,411.565094 391.461548,411.521790 
z"/>
<path fill="#11071F" opacity="1.000000" stroke="none" 
	d="
M388.968628,413.937286 
	C389.069031,413.895782 389.211212,413.903992 389.231445,413.991394 
	C389.109558,414.070618 389.010345,413.986969 388.968628,413.937286 
z"/>
<path fill="#11071F" opacity="1.000000" stroke="none" 
	d="
M91.462204,108.521683 
	C91.438225,108.477341 91.486183,108.566032 91.462204,108.521683 
z"/>
<path fill="#11071F" opacity="1.000000" stroke="none" 
	d="
M73.454117,133.527023 
	C73.424179,133.474823 73.484055,133.579224 73.454117,133.527023 
z"/>
<path fill="#FAF6F3" opacity="1.000000" stroke="none" 
	d="
M373.992249,426.003906 
	C373.919769,426.353943 373.855560,426.700134 373.570374,427.197937 
	C373.198975,427.175385 373.048523,427.001129 372.711761,426.534973 
	C372.845947,426.155823 373.166443,426.068634 373.739441,425.999023 
	C373.991882,426.016632 374.000549,426.000000 373.992249,426.003906 
z"/>
<path fill="#0E0319" opacity="1.000000" stroke="none" 
	d="
M384.806946,273.888428 
	C389.531921,276.153809 391.437347,280.043793 390.301605,284.335571 
	C387.773468,293.889282 384.790039,303.350891 381.406158,312.636505 
	C379.960449,316.603546 376.702972,319.601257 371.794220,319.191437 
	C366.837128,318.777588 364.149445,315.385040 362.505127,311.217499 
	C358.396393,300.804047 359.039490,290.639771 365.364594,281.277283 
	C369.887512,274.582336 376.394379,272.007019 384.806946,273.888428 
z"/>
<path fill="#100418" opacity="1.000000" stroke="none" 
	d="
M253.903137,317.005066 
	C248.308563,319.550995 243.039337,321.927521 237.046173,324.630554 
	C237.120834,316.634369 237.971375,309.843750 241.438400,303.582092 
	C241.999039,302.569580 242.675873,301.595093 243.438080,300.724762 
	C248.006241,295.508484 255.498840,294.522278 259.356689,298.586700 
	C263.582489,303.038696 262.787872,309.646881 257.410431,314.420654 
	C256.417603,315.302032 255.292526,316.034485 253.903137,317.005066 
z"/>
<path fill="#FBC900" opacity="1.000000" stroke="none" 
	d="
M215.175888,328.123901 
	C214.707993,327.047791 214.534378,326.019379 214.360764,324.990967 
	C214.863861,324.963837 215.366974,324.936707 215.870071,324.909607 
	C215.736771,325.996918 215.603470,327.084259 215.175888,328.123901 
z"/>
<path fill="#0E0319" opacity="1.000000" stroke="none" 
	d="
M299.720215,158.772598 
	C303.438477,154.245483 307.998932,152.179321 313.424530,151.983734 
	C320.420258,151.731522 324.668762,155.737610 323.920868,162.709915 
	C322.815216,173.017380 320.023346,182.928040 314.712585,191.952103 
	C312.613556,195.518784 309.850952,198.462708 305.198029,197.996689 
	C300.519318,197.528137 297.711304,194.326736 296.168488,190.343765 
	C291.938507,179.423157 292.591644,168.870102 299.720215,158.772598 
z"/>
<path fill="#120618" opacity="1.000000" stroke="none" 
	d="
M186.910522,172.957779 
	C188.166367,183.503586 189.387421,193.685150 190.689758,204.544479 
	C183.130203,204.995453 175.780655,205.433899 167.547226,205.925079 
	C168.914795,203.072327 169.952240,200.735504 171.133881,198.474030 
	C175.581268,189.962433 180.055283,181.464478 184.584808,172.996445 
	C185.023544,172.176208 185.537140,169.322830 186.910522,172.957779 
z"/>
</svg>